# xmcd
#
# Track frame offsets:
#	150
#	11787
#	23371
#	36169
#	48315
#	60723
#	77136
#	90384
#	102180
#	115390
#	126414
#	137050
#	147811
#	165291
#	174494
#	187422
#	208638
#	223705
#
# Disc length: 3163 seconds
#
# Revision: 1
# Processed by: cddbd v1.5.2PL0 Copyright (c) Steve Scherf et al.
# Submitted via: audiograbber 1.81.03
#
DISCID=fa0c5912
DTITLE=Johnny`Burke - Johnny Burke Country
DYEAR=1999
DGENRE=Country
TTITLE0=Wild Honey
TTITLE1=A Picture Of You
TTITLE2=Troubles On My Mind
TTITLE3=Love Don't Grown On Trees
TTITLE4=Bad Times And Good Old Days
TTITLE5=Scotia Sunshine
TTITLE6=Tender Hearts
TTITLE7=A Hundred Pounds Of Clay
TTITLE8=Loose And Lonely
TTITLE9=Your Love
TTITLE10=Baby, You're All Mine Tonight
TTITLE11=Loving You Again
TTITLE12=Gold In His Mind
TTITLE13=The Love I Want To Waste
TTITLE14=Hollywood Heroes
TTITLE15=Judge My Soul Again
TTITLE16=Everybody's Going Crazy
TTITLE17=Still Feels Good
EXTD=
EXTT0=
EXTT1=
EXTT2=
EXTT3=
EXTT4=
EXTT5=
EXTT6=
EXTT7=
EXTT8=
EXTT9=
EXTT10=
EXTT11=
EXTT12=
EXTT13=
EXTT14=
EXTT15=
EXTT16=
EXTT17=
PLAYORDER=
